<svg id="Layer_5" enable-background="new 0 0 64 64" height="512" viewBox="0 0 64 64" width="512" xmlns="http://www.w3.org/2000/svg"><g><path d="m59 3h4v2h-4z"/><path d="m59 9h4v2h-4z"/><path d="m54 23h-33c-3.86 0-7-3.14-7-7v-1c0-3.86 3.14-7 7-7h19.277c.347.595.985 1 1.723 1h3.101c-.066-.323-.101-.658-.101-1v-2c0-.342.035-.677.101-1h-3.101c-.738 0-1.376.405-1.723 1h-19.277c-4.962 0-9 4.038-9 9v1c0 4.962 4.038 9 9 9h33c3.86 0 7 3.14 7 7v8c0 3.86-3.14 7-7 7v-1c0-1.105-.895-2-2-2h-1v8h1c1.105 0 2-.895 2-2v-1c4.962 0 9-4.038 9-9v-8c0-4.962-4.038-9-9-9z"/><path d="m17.029 55.652c-.461-.46-1.131-1.173-1.867-2.105-.098 1.133-.162 2.284-.162 3.453 0 3.375 2.199 5.613 2.293 5.707l1.417-1.411c-.017-.018-1.71-1.77-1.71-4.296 0-.451.012-.901.029-1.348z"/><path d="m50 11h7v-8h-7c-1.654 0-3 1.346-3 3v2c0 1.654 1.346 3 3 3z"/><path d="m11.396 51.601-7.139-7.932 1.486-1.338 3.648 4.054c-.24-1.079-.391-2.206-.391-3.384 0-.315.02-.619.051-.917-1.822-1.181-3.886-1.883-6.051-2.046v2.962c0 6.664 5.042 12.165 11.51 12.908-.937-1.057-2.084-2.537-3.091-4.328z"/><path d="m12.051 42.315 1.898-.631 2.054 6.183c1.444-6.912 3.954-12.019 4.102-12.315l1.789.894c-.024.047-1.164 2.365-2.338 5.941l3.948-2.256.992 1.736-5.777 3.301c-.404 1.476-.777 3.083-1.073 4.775l5.807-3.782 1.092 1.676-7.281 4.742c-.116 1.007-.197 2.033-.236 3.072.063.062.13.13.184.183 2.152-.918 9.788-4.617 9.788-10.833 0-6.394-4.044-10.007-5.237-10.934-1.999.426-10.763 2.652-10.763 8.934 0 4.368 2.273 8.153 4.162 10.545.041-.481.09-.956.146-1.428z"/><path d="m27 52v-.938-.085c-.52.733-1.11 1.408-1.741 2.023h.741c.551 0 1-.449 1-1z"/><path d="m32 53c.551 0 1-.449 1-1v-8c0-.551-.449-1-1-1h-2c-.551 0-1 .449-1 1v7.062.938c0 .551.449 1 1 1z"/><path d="m38 53c.551 0 1-.449 1-1v-8c0-.551-.449-1-1-1h-2c-.551 0-1 .449-1 1v8c0 .551.449 1 1 1z"/><path d="m44 53c.551 0 1-.449 1-1v-8c0-.551-.449-1-1-1h-2c-.551 0-1 .449-1 1v8c0 .551.449 1 1 1z"/><path d="m45 39h-17.161c.297.731.548 1.522.743 2.373.424-.23.902-.373 1.418-.373h2c.771 0 1.468.301 2 .78.532-.48 1.229-.78 2-.78h2c.771 0 1.468.301 2 .78.532-.48 1.229-.78 2-.78h2c1.654 0 3 1.346 3 3v8c0 1.654-1.346 3-3 3h-2c-.771 0-1.468-.301-2-.78-.532.48-1.229.78-2 .78h-2c-.771 0-1.468-.301-2-.78-.532.48-1.229.78-2 .78h-2c-.771 0-1.468-.301-2-.78-.532.48-1.229.78-2 .78h-2c-.323 0-.64-.057-.943-.158-1.287.931-2.564 1.649-3.587 2.158h25.53c2.206 0 4-1.794 4-4v-10c0-2.206-1.794-4-4-4z"/></g></svg>